<mxfile host="65bd71144e">
    <diagram id="JFFtvGdBms1kCDurncL_" name="Page-1">
        <mxGraphModel dx="1367" dy="915" grid="1" gridSize="10" guides="1" tooltips="1" connect="1" arrows="1" fold="1" page="1" pageScale="1" pageWidth="850" pageHeight="1100" math="0" shadow="0">
            <root>
                <mxCell id="0"/>
                <mxCell id="1" parent="0"/>
                <mxCell id="7" value="Event" style="swimlane;fontStyle=1;align=center;verticalAlign=top;childLayout=stackLayout;horizontal=1;startSize=26;horizontalStack=0;resizeParent=1;resizeParentMax=0;resizeLast=0;collapsible=1;marginBottom=0;fontSize=14;" parent="1" vertex="1">
                    <mxGeometry y="300" width="300" height="240" as="geometry"/>
                </mxCell>
                <mxCell id="8" value="&lt;&lt;get / set&gt;&gt; #eventID: int&#10;&lt;&lt;get / set&gt;&gt; #instituionID: int&#10;&lt;&lt;get / set&gt;&gt; #title: String&#10;&lt;&lt;get / set&gt;&gt; #description: String&#10;&lt;&lt;get / set&gt;&gt; #englishLocation: String&#10;&lt;&lt;get / set&gt;&gt; #mapLocation: Location&#10;&lt;&lt;get / set&gt;&gt; #fromDate: Date&#10;&lt;&lt;get / set&gt;&gt; #toDate: Date&#10;&lt;&lt;get / set&gt;&gt; #fromWorkingHour: LocalTime&#10;&lt;&lt;get / set&gt;&gt; #toWorkingHour: LocalTime&#10;" style="text;strokeColor=none;fillColor=none;align=left;verticalAlign=top;spacingLeft=4;spacingRight=4;overflow=hidden;rotatable=0;points=[[0,0.5],[1,0.5]];portConstraint=eastwest;fontSize=14;" parent="7" vertex="1">
                    <mxGeometry y="26" width="300" height="194" as="geometry"/>
                </mxCell>
                <mxCell id="9" value="" style="line;strokeWidth=1;fillColor=none;align=left;verticalAlign=middle;spacingTop=-1;spacingLeft=3;spacingRight=3;rotatable=0;labelPosition=right;points=[];portConstraint=eastwest;" parent="7" vertex="1">
                    <mxGeometry y="220" width="300" height="20" as="geometry"/>
                </mxCell>
                <mxCell id="fqxu1SJbFrn7Zud5HkEr-159" style="edgeStyle=none;html=1;exitX=0.5;exitY=0;exitDx=0;exitDy=0;entryX=0.478;entryY=0.99;entryDx=0;entryDy=0;entryPerimeter=0;fontSize=14;endArrow=none;endFill=0;startArrow=none;startFill=0;" parent="1" source="53" target="78" edge="1">
                    <mxGeometry relative="1" as="geometry"/>
                </mxCell>
                <mxCell id="53" value="EventService" style="swimlane;fontStyle=1;align=center;verticalAlign=top;childLayout=stackLayout;horizontal=1;startSize=26;horizontalStack=0;resizeParent=1;resizeParentMax=0;resizeLast=0;collapsible=1;marginBottom=0;fontSize=14;" parent="1" vertex="1">
                    <mxGeometry x="380" y="320" width="390" height="180" as="geometry"/>
                </mxCell>
                <mxCell id="54" value="- eventDao: EventDao" style="text;strokeColor=none;fillColor=none;align=left;verticalAlign=top;spacingLeft=4;spacingRight=4;overflow=hidden;rotatable=0;points=[[0,0.5],[1,0.5]];portConstraint=eastwest;fontSize=14;" parent="53" vertex="1">
                    <mxGeometry y="26" width="390" height="34" as="geometry"/>
                </mxCell>
                <mxCell id="55" value="" style="line;strokeWidth=1;fillColor=none;align=left;verticalAlign=middle;spacingTop=-1;spacingLeft=3;spacingRight=3;rotatable=0;labelPosition=right;points=[];portConstraint=eastwest;fontSize=14;" parent="53" vertex="1">
                    <mxGeometry y="60" width="390" height="8" as="geometry"/>
                </mxCell>
                <mxCell id="56" value="+ createEvent(event: Event): int&#10;+ updateEvent(event: Event): boolean&#10;+ deleteEvent(ID: eventID): boolean&#10;+ getUserEvents (UserID: int, location: Location): List&lt;Event&gt;&#10;+ getInstitionEvents(InstituionID: int): List&lt;Event&gt;" style="text;strokeColor=none;fillColor=none;align=left;verticalAlign=top;spacingLeft=4;spacingRight=4;overflow=hidden;rotatable=0;points=[[0,0.5],[1,0.5]];portConstraint=eastwest;fontSize=14;" parent="53" vertex="1">
                    <mxGeometry y="68" width="390" height="112" as="geometry"/>
                </mxCell>
                <mxCell id="64" value="&lt;&lt;interface&gt;&gt;&#10;EventDao" style="swimlane;fontStyle=1;align=center;verticalAlign=middle;childLayout=stackLayout;horizontal=1;startSize=30;horizontalStack=0;resizeParent=1;resizeParentMax=0;resizeLast=0;collapsible=1;marginBottom=0;" parent="1" vertex="1">
                    <mxGeometry x="850" y="330" width="300" height="150" as="geometry"/>
                </mxCell>
                <mxCell id="65" value="" style="line;strokeWidth=1;fillColor=none;align=left;verticalAlign=middle;spacingTop=-1;spacingLeft=3;spacingRight=3;rotatable=0;labelPosition=right;points=[];portConstraint=eastwest;" parent="64" vertex="1">
                    <mxGeometry y="30" width="300" height="10" as="geometry"/>
                </mxCell>
                <mxCell id="66" value="+ createEvent(event: Event): int&#10;+ updateEvent(event: Event): boolean&#10;+ deleteEvent(eventID: int): boolean&#10;+ getUserEvents(UserID: int): List&lt;Event&gt;&#10;+ getInstitutionEvents(InstitutionID: int): List&lt;Event&gt;&#10;+ getEvent(eventID: int): Event&#10;" style="text;strokeColor=none;fillColor=none;align=left;verticalAlign=top;spacingLeft=4;spacingRight=4;overflow=hidden;rotatable=0;points=[[0,0.5],[1,0.5]];portConstraint=eastwest;" parent="64" vertex="1">
                    <mxGeometry y="40" width="300" height="110" as="geometry"/>
                </mxCell>
                <mxCell id="75" value="Instituion" style="swimlane;fontStyle=1;align=center;verticalAlign=top;childLayout=stackLayout;horizontal=1;startSize=26;horizontalStack=0;resizeParent=1;resizeParentMax=0;resizeLast=0;collapsible=1;marginBottom=0;fontSize=18;" parent="1" vertex="1">
                    <mxGeometry x="500" y="10" width="160" height="190" as="geometry"/>
                </mxCell>
                <mxCell id="79" value="-ID" style="text;strokeColor=none;fillColor=none;align=left;verticalAlign=middle;spacingLeft=4;spacingRight=4;overflow=hidden;points=[[0,0.5],[1,0.5]];portConstraint=eastwest;rotatable=0;" parent="75" vertex="1">
                    <mxGeometry y="26" width="160" height="30" as="geometry"/>
                </mxCell>
                <mxCell id="80" value="-eventService:EventService" style="text;html=1;strokeColor=none;fillColor=none;align=left;verticalAlign=middle;whiteSpace=wrap;rounded=0;" parent="75" vertex="1">
                    <mxGeometry y="56" width="160" height="30" as="geometry"/>
                </mxCell>
                <mxCell id="77" value="" style="line;strokeWidth=1;fillColor=none;align=left;verticalAlign=middle;spacingTop=-1;spacingLeft=3;spacingRight=3;rotatable=0;labelPosition=right;points=[];portConstraint=eastwest;fontSize=18;" parent="75" vertex="1">
                    <mxGeometry y="86" width="160" height="54" as="geometry"/>
                </mxCell>
                <mxCell id="78" value="+CreateEvent():boolean&#10;+editEvent():boolean" style="text;strokeColor=none;fillColor=none;align=left;verticalAlign=top;spacingLeft=4;spacingRight=4;overflow=hidden;rotatable=0;points=[[0,0.5],[1,0.5]];portConstraint=eastwest;fontSize=12;" parent="75" vertex="1">
                    <mxGeometry y="140" width="160" height="50" as="geometry"/>
                </mxCell>
                <mxCell id="105" value="&lt;&lt;interface&gt;&gt;&#10;TransactionDao" style="swimlane;fontStyle=1;align=center;verticalAlign=middle;childLayout=stackLayout;horizontal=1;startSize=26;horizontalStack=0;resizeParent=1;resizeParentMax=0;resizeLast=0;collapsible=1;marginBottom=0;" parent="1" vertex="1">
                    <mxGeometry x="850" y="710" width="310" height="90" as="geometry"/>
                </mxCell>
                <mxCell id="106" value="" style="line;strokeWidth=1;fillColor=none;align=left;verticalAlign=middle;spacingTop=-1;spacingLeft=3;spacingRight=3;rotatable=0;labelPosition=right;points=[];portConstraint=eastwest;" parent="105" vertex="1">
                    <mxGeometry y="26" width="310" height="8" as="geometry"/>
                </mxCell>
                <mxCell id="107" value="+ createTransaction(transaction: Transaction)&#10;+ updateLastDonatedTime(userID: int): boolean&#10;+ updateNoOfBags(InstitutionID: int) " style="text;strokeColor=none;fillColor=none;align=left;verticalAlign=top;spacingLeft=4;spacingRight=4;overflow=hidden;rotatable=0;points=[[0,0.5],[1,0.5]];portConstraint=eastwest;" parent="105" vertex="1">
                    <mxGeometry y="34" width="310" height="56" as="geometry"/>
                </mxCell>
                <mxCell id="126" style="edgeStyle=none;html=1;exitX=0;exitY=0.5;exitDx=0;exitDy=0;fontSize=14;endArrow=none;endFill=0;" parent="1" source="66" target="56" edge="1">
                    <mxGeometry relative="1" as="geometry"/>
                </mxCell>
                <mxCell id="142" value="Tansaction" style="swimlane;fontStyle=0;childLayout=stackLayout;horizontal=1;startSize=26;fillColor=none;horizontalStack=0;resizeParent=1;resizeParentMax=0;resizeLast=0;collapsible=1;marginBottom=0;fontSize=14;" parent="1" vertex="1">
                    <mxGeometry x="30" y="710" width="240" height="110" as="geometry"/>
                </mxCell>
                <mxCell id="145" value="&lt;&lt;set&gt;&gt; #from(donor id) : int &#10;&lt;&lt;set&gt;&gt; #instituion: instituionID&#10;&lt;&lt;set&gt;&gt; #to(reciepient id) : int&#10;&lt;&lt; set&gt;&gt; #timeOfTransaction: Time&#10;" style="text;strokeColor=none;fillColor=none;align=left;verticalAlign=top;spacingLeft=4;spacingRight=4;overflow=hidden;rotatable=0;points=[[0,0.5],[1,0.5]];portConstraint=eastwest;fontSize=14;" parent="142" vertex="1">
                    <mxGeometry y="26" width="240" height="84" as="geometry"/>
                </mxCell>
                <mxCell id="154" value="TransactionService" style="swimlane;fontStyle=1;align=center;verticalAlign=top;childLayout=stackLayout;horizontal=1;startSize=26;horizontalStack=0;resizeParent=1;resizeParentMax=0;resizeLast=0;collapsible=1;marginBottom=0;fontSize=14;" parent="1" vertex="1">
                    <mxGeometry x="410" y="690" width="320" height="160" as="geometry"/>
                </mxCell>
                <mxCell id="155" value="- transactionDao: TransactionDao&#10;" style="text;strokeColor=none;fillColor=none;align=left;verticalAlign=top;spacingLeft=4;spacingRight=4;overflow=hidden;rotatable=0;points=[[0,0.5],[1,0.5]];portConstraint=eastwest;fontSize=14;" parent="154" vertex="1">
                    <mxGeometry y="26" width="320" height="34" as="geometry"/>
                </mxCell>
                <mxCell id="156" value="" style="line;strokeWidth=1;fillColor=none;align=left;verticalAlign=middle;spacingTop=-1;spacingLeft=3;spacingRight=3;rotatable=0;labelPosition=right;points=[];portConstraint=eastwest;fontSize=14;" parent="154" vertex="1">
                    <mxGeometry y="60" width="320" height="8" as="geometry"/>
                </mxCell>
                <mxCell id="157" value="+ createTransaction(transaction: Transaction)&#10;+ updateLastDonatedTime(userID: int): boolean&#10;+ updateNoOfBags(institutionID: int) " style="text;strokeColor=none;fillColor=none;align=left;verticalAlign=top;spacingLeft=4;spacingRight=4;overflow=hidden;rotatable=0;points=[[0,0.5],[1,0.5]];portConstraint=eastwest;fontSize=14;" parent="154" vertex="1">
                    <mxGeometry y="68" width="320" height="92" as="geometry"/>
                </mxCell>
                <mxCell id="T5lEegtDsJeZQ5K3YUQ6-162" style="edgeStyle=none;html=1;exitX=1;exitY=0.5;exitDx=0;exitDy=0;entryX=0;entryY=0.75;entryDx=0;entryDy=0;fontSize=14;endArrow=none;endFill=0;" parent="1" source="155" target="105" edge="1">
                    <mxGeometry relative="1" as="geometry"/>
                </mxCell>
                <mxCell id="eotIb6DFzLrQLpkZFVwQ-158" style="edgeStyle=none;html=1;exitX=-0.009;exitY=0.078;exitDx=0;exitDy=0;fontSize=18;exitPerimeter=0;endArrow=open;endFill=0;dashed=1;" parent="1" source="157" target="145" edge="1">
                    <mxGeometry relative="1" as="geometry">
                        <mxPoint x="379.9999999999998" y="906.31" as="sourcePoint"/>
                        <mxPoint x="279.76" y="900" as="targetPoint"/>
                    </mxGeometry>
                </mxCell>
                <mxCell id="fqxu1SJbFrn7Zud5HkEr-158" style="edgeStyle=none;html=1;exitX=0;exitY=0.5;exitDx=0;exitDy=0;entryX=1.001;entryY=0.634;entryDx=0;entryDy=0;entryPerimeter=0;fontSize=14;endArrow=open;endFill=0;dashed=1;" parent="1" source="56" target="8" edge="1">
                    <mxGeometry relative="1" as="geometry"/>
                </mxCell>
            </root>
        </mxGraphModel>
    </diagram>
    <diagram id="mxBNa6fx7uLhi-VjpEai" name="CRC">
        <mxGraphModel dx="820" dy="549" grid="1" gridSize="10" guides="1" tooltips="1" connect="1" arrows="1" fold="1" page="1" pageScale="1" pageWidth="850" pageHeight="1100" math="0" shadow="0">
            <root>
                <mxCell id="SCy3Kb6sFU_jo6mRdR9g-0"/>
                <mxCell id="SCy3Kb6sFU_jo6mRdR9g-1" parent="SCy3Kb6sFU_jo6mRdR9g-0"/>
                <mxCell id="MTPK1X4yMHL3GJOz_C7F-0" value="Transaction DAO" style="shape=table;startSize=30;container=1;collapsible=1;childLayout=tableLayout;fixedRows=1;rowLines=0;fontStyle=1;align=center;resizeLast=1;" parent="SCy3Kb6sFU_jo6mRdR9g-1" vertex="1">
                    <mxGeometry x="230" y="190" width="180" height="180" as="geometry"/>
                </mxCell>
                <mxCell id="MTPK1X4yMHL3GJOz_C7F-1" value="" style="shape=tableRow;horizontal=0;startSize=0;swimlaneHead=0;swimlaneBody=0;fillColor=none;collapsible=0;dropTarget=0;points=[[0,0.5],[1,0.5]];portConstraint=eastwest;top=0;left=0;right=0;bottom=1;" parent="MTPK1X4yMHL3GJOz_C7F-0" vertex="1">
                    <mxGeometry y="30" width="180" height="30" as="geometry"/>
                </mxCell>
                <mxCell id="MTPK1X4yMHL3GJOz_C7F-2" value="Attributes" style="shape=partialRectangle;connectable=0;fillColor=none;top=0;left=0;bottom=0;right=0;fontStyle=1;overflow=hidden;" parent="MTPK1X4yMHL3GJOz_C7F-1" vertex="1">
                    <mxGeometry width="70" height="30" as="geometry">
                        <mxRectangle width="70" height="30" as="alternateBounds"/>
                    </mxGeometry>
                </mxCell>
                <mxCell id="MTPK1X4yMHL3GJOz_C7F-3" value="Collaborations" style="shape=partialRectangle;connectable=0;fillColor=none;top=0;left=0;bottom=0;right=0;align=left;spacingLeft=6;fontStyle=1;overflow=hidden;" parent="MTPK1X4yMHL3GJOz_C7F-1" vertex="1">
                    <mxGeometry x="70" width="110" height="30" as="geometry">
                        <mxRectangle width="110" height="30" as="alternateBounds"/>
                    </mxGeometry>
                </mxCell>
                <mxCell id="MTPK1X4yMHL3GJOz_C7F-4" value="" style="shape=tableRow;horizontal=0;startSize=0;swimlaneHead=0;swimlaneBody=0;fillColor=none;collapsible=0;dropTarget=0;points=[[0,0.5],[1,0.5]];portConstraint=eastwest;top=0;left=0;right=0;bottom=0;" parent="MTPK1X4yMHL3GJOz_C7F-0" vertex="1">
                    <mxGeometry y="60" width="180" height="30" as="geometry"/>
                </mxCell>
                <mxCell id="MTPK1X4yMHL3GJOz_C7F-5" value="Gson" style="shape=partialRectangle;connectable=0;fillColor=none;top=0;left=0;bottom=0;right=0;editable=1;overflow=hidden;" parent="MTPK1X4yMHL3GJOz_C7F-4" vertex="1">
                    <mxGeometry width="70" height="30" as="geometry">
                        <mxRectangle width="70" height="30" as="alternateBounds"/>
                    </mxGeometry>
                </mxCell>
                <mxCell id="MTPK1X4yMHL3GJOz_C7F-6" value="User" style="shape=partialRectangle;connectable=0;fillColor=none;top=0;left=0;bottom=0;right=0;align=left;spacingLeft=6;overflow=hidden;" parent="MTPK1X4yMHL3GJOz_C7F-4" vertex="1">
                    <mxGeometry x="70" width="110" height="30" as="geometry">
                        <mxRectangle width="110" height="30" as="alternateBounds"/>
                    </mxGeometry>
                </mxCell>
                <mxCell id="MTPK1X4yMHL3GJOz_C7F-7" value="" style="shape=tableRow;horizontal=0;startSize=0;swimlaneHead=0;swimlaneBody=0;fillColor=none;collapsible=0;dropTarget=0;points=[[0,0.5],[1,0.5]];portConstraint=eastwest;top=0;left=0;right=0;bottom=0;" parent="MTPK1X4yMHL3GJOz_C7F-0" vertex="1">
                    <mxGeometry y="90" width="180" height="30" as="geometry"/>
                </mxCell>
                <mxCell id="MTPK1X4yMHL3GJOz_C7F-8" value="" style="shape=partialRectangle;connectable=0;fillColor=none;top=0;left=0;bottom=0;right=0;editable=1;overflow=hidden;" parent="MTPK1X4yMHL3GJOz_C7F-7" vertex="1">
                    <mxGeometry width="70" height="30" as="geometry">
                        <mxRectangle width="70" height="30" as="alternateBounds"/>
                    </mxGeometry>
                </mxCell>
                <mxCell id="MTPK1X4yMHL3GJOz_C7F-9" value="UserValidator" style="shape=partialRectangle;connectable=0;fillColor=none;top=0;left=0;bottom=0;right=0;align=left;spacingLeft=6;overflow=hidden;" parent="MTPK1X4yMHL3GJOz_C7F-7" vertex="1">
                    <mxGeometry x="70" width="110" height="30" as="geometry">
                        <mxRectangle width="110" height="30" as="alternateBounds"/>
                    </mxGeometry>
                </mxCell>
                <mxCell id="hnCfbNWegS8PAHl5CHGh-1" value="" style="shape=partialRectangle;collapsible=0;dropTarget=0;pointerEvents=0;fillColor=none;top=0;left=0;bottom=0;right=0;points=[[0,0.5],[1,0.5]];portConstraint=eastwest;fontSize=11;" parent="MTPK1X4yMHL3GJOz_C7F-0" vertex="1">
                    <mxGeometry y="120" width="180" height="30" as="geometry"/>
                </mxCell>
                <mxCell id="hnCfbNWegS8PAHl5CHGh-2" value="" style="shape=partialRectangle;connectable=0;fillColor=none;top=0;left=0;bottom=0;right=0;editable=1;overflow=hidden;fontSize=11;" parent="hnCfbNWegS8PAHl5CHGh-1" vertex="1">
                    <mxGeometry width="70" height="30" as="geometry">
                        <mxRectangle width="70" height="30" as="alternateBounds"/>
                    </mxGeometry>
                </mxCell>
                <mxCell id="hnCfbNWegS8PAHl5CHGh-3" value="Row" style="shape=partialRectangle;connectable=0;fillColor=none;top=0;left=0;bottom=0;right=0;align=left;spacingLeft=6;overflow=hidden;fontSize=11;" parent="hnCfbNWegS8PAHl5CHGh-1" vertex="1">
                    <mxGeometry x="70" width="110" height="30" as="geometry">
                        <mxRectangle width="110" height="30" as="alternateBounds"/>
                    </mxGeometry>
                </mxCell>
                <mxCell id="MTPK1X4yMHL3GJOz_C7F-10" value="" style="shape=tableRow;horizontal=0;startSize=0;swimlaneHead=0;swimlaneBody=0;fillColor=none;collapsible=0;dropTarget=0;points=[[0,0.5],[1,0.5]];portConstraint=eastwest;top=0;left=0;right=0;bottom=0;" parent="MTPK1X4yMHL3GJOz_C7F-0" vertex="1">
                    <mxGeometry y="150" width="180" height="30" as="geometry"/>
                </mxCell>
                <mxCell id="MTPK1X4yMHL3GJOz_C7F-11" value="" style="shape=partialRectangle;connectable=0;fillColor=none;top=0;left=0;bottom=0;right=0;editable=1;overflow=hidden;" parent="MTPK1X4yMHL3GJOz_C7F-10" vertex="1">
                    <mxGeometry width="70" height="30" as="geometry">
                        <mxRectangle width="70" height="30" as="alternateBounds"/>
                    </mxGeometry>
                </mxCell>
                <mxCell id="MTPK1X4yMHL3GJOz_C7F-12" value="UserRegisterer" style="shape=partialRectangle;connectable=0;fillColor=none;top=0;left=0;bottom=0;right=0;align=left;spacingLeft=6;overflow=hidden;" parent="MTPK1X4yMHL3GJOz_C7F-10" vertex="1">
                    <mxGeometry x="70" width="110" height="30" as="geometry">
                        <mxRectangle width="110" height="30" as="alternateBounds"/>
                    </mxGeometry>
                </mxCell>
            </root>
        </mxGraphModel>
    </diagram>
    <diagram id="1_JVx6NQcP4Yt9ob2DBl" name="Activity">
        <mxGraphModel dx="820" dy="549" grid="1" gridSize="10" guides="1" tooltips="1" connect="1" arrows="1" fold="1" page="1" pageScale="1" pageWidth="850" pageHeight="1100" math="0" shadow="0">
            <root>
                <mxCell id="aDghzlmtOEEkzEwvL-jS-0"/>
                <mxCell id="aDghzlmtOEEkzEwvL-jS-1" parent="aDghzlmtOEEkzEwvL-jS-0"/>
                <mxCell id="tt-pMoA_5IqYp2kbDNKd-2" value="&lt;span style=&quot;font-size: 18px ; font-weight: 700&quot;&gt;Instituion&lt;/span&gt;" style="shape=umlLifeline;perimeter=lifelinePerimeter;whiteSpace=wrap;html=1;container=1;collapsible=0;recursiveResize=0;outlineConnect=0;fontSize=12;" parent="aDghzlmtOEEkzEwvL-jS-1" vertex="1">
                    <mxGeometry x="310" y="300" width="100" height="530" as="geometry"/>
                </mxCell>
                <mxCell id="tt-pMoA_5IqYp2kbDNKd-6" value="" style="html=1;points=[];perimeter=orthogonalPerimeter;fontSize=12;" parent="tt-pMoA_5IqYp2kbDNKd-2" vertex="1">
                    <mxGeometry x="45" y="80" width="10" height="410" as="geometry"/>
                </mxCell>
                <mxCell id="tt-pMoA_5IqYp2kbDNKd-4" value="Accept event&amp;nbsp;" style="shape=umlLifeline;perimeter=lifelinePerimeter;whiteSpace=wrap;html=1;container=1;collapsible=0;recursiveResize=0;outlineConnect=0;fontSize=12;" parent="aDghzlmtOEEkzEwvL-jS-1" vertex="1">
                    <mxGeometry x="470" y="300" width="100" height="580" as="geometry"/>
                </mxCell>
                <mxCell id="Gj6sqKOXDR0qHtFvYXJQ-0" value="" style="html=1;points=[];perimeter=orthogonalPerimeter;fontSize=12;" parent="tt-pMoA_5IqYp2kbDNKd-4" vertex="1">
                    <mxGeometry x="45" y="80" width="10" height="430" as="geometry"/>
                </mxCell>
                <mxCell id="ax5FDWNTgviS5jDJAOVc-2" value="" style="endArrow=open;html=1;endSize=12;startArrow=none;startSize=14;startFill=0;edgeStyle=orthogonalEdgeStyle;align=left;verticalAlign=bottom;fontSize=12;exitX=1.038;exitY=0.389;exitDx=0;exitDy=0;exitPerimeter=0;" parent="tt-pMoA_5IqYp2kbDNKd-4" edge="1">
                    <mxGeometry x="-1" y="3" relative="1" as="geometry">
                        <mxPoint x="60" y="164.79" as="sourcePoint"/>
                        <mxPoint x="175" y="164.66" as="targetPoint"/>
                        <Array as="points">
                            <mxPoint x="154.62" y="164.66"/>
                            <mxPoint x="154.62" y="164.66"/>
                        </Array>
                    </mxGeometry>
                </mxCell>
                <mxCell id="RF_INsVU_Fu4TSAUK-xB-0" value="Save to DB" style="shape=umlLifeline;perimeter=lifelinePerimeter;whiteSpace=wrap;html=1;container=1;collapsible=0;recursiveResize=0;outlineConnect=0;fontSize=12;" parent="aDghzlmtOEEkzEwvL-jS-1" vertex="1">
                    <mxGeometry x="600" y="300" width="100" height="580" as="geometry"/>
                </mxCell>
                <mxCell id="ax5FDWNTgviS5jDJAOVc-1" value="" style="html=1;points=[];perimeter=orthogonalPerimeter;fontSize=12;" parent="RF_INsVU_Fu4TSAUK-xB-0" vertex="1">
                    <mxGeometry x="45" y="80" width="10" height="470" as="geometry"/>
                </mxCell>
                <mxCell id="jKKKujjsMRR3bN3Y__Gj-0" value="" style="endArrow=open;html=1;endSize=12;startArrow=none;startSize=14;startFill=0;edgeStyle=orthogonalEdgeStyle;align=left;verticalAlign=bottom;fontSize=12;exitX=1.038;exitY=0.389;exitDx=0;exitDy=0;exitPerimeter=0;" parent="aDghzlmtOEEkzEwvL-jS-1" source="tt-pMoA_5IqYp2kbDNKd-6" target="tt-pMoA_5IqYp2kbDNKd-4" edge="1">
                    <mxGeometry x="-1" y="3" relative="1" as="geometry">
                        <mxPoint x="370" y="450" as="sourcePoint"/>
                        <mxPoint x="560" y="430" as="targetPoint"/>
                        <Array as="points">
                            <mxPoint x="460" y="446"/>
                            <mxPoint x="460" y="446"/>
                        </Array>
                    </mxGeometry>
                </mxCell>
                <mxCell id="ax5FDWNTgviS5jDJAOVc-0" value="Create Event" style="text;html=1;align=center;verticalAlign=middle;resizable=0;points=[];autosize=1;strokeColor=none;fillColor=none;fontSize=12;" parent="aDghzlmtOEEkzEwvL-jS-1" vertex="1">
                    <mxGeometry x="390" y="420" width="90" height="20" as="geometry"/>
                </mxCell>
                <mxCell id="ax5FDWNTgviS5jDJAOVc-3" value="Accept Event" style="text;html=1;align=center;verticalAlign=middle;resizable=0;points=[];autosize=1;strokeColor=none;fillColor=none;fontSize=12;" parent="aDghzlmtOEEkzEwvL-jS-1" vertex="1">
                    <mxGeometry x="540" y="440" width="90" height="20" as="geometry"/>
                </mxCell>
                <mxCell id="ax5FDWNTgviS5jDJAOVc-8" value="" style="html=1;verticalAlign=bottom;labelBackgroundColor=none;endArrow=none;endFill=0;dashed=1;fontSize=12;startArrow=classic;startFill=1;entryX=0.784;entryY=0.9;entryDx=0;entryDy=0;entryPerimeter=0;" parent="aDghzlmtOEEkzEwvL-jS-1" target="rY23scBUV142XokkgXLj-0" edge="1">
                    <mxGeometry width="160" relative="1" as="geometry">
                        <mxPoint x="530" y="501" as="sourcePoint"/>
                        <mxPoint x="660" y="501" as="targetPoint"/>
                    </mxGeometry>
                </mxCell>
                <mxCell id="rY23scBUV142XokkgXLj-0" value="Alternative&amp;nbsp;" style="shape=umlFrame;whiteSpace=wrap;html=1;" parent="aDghzlmtOEEkzEwvL-jS-1" vertex="1">
                    <mxGeometry x="240" y="420" width="510" height="90" as="geometry"/>
                </mxCell>
                <mxCell id="rY23scBUV142XokkgXLj-2" value="IF valide Event" style="text;strokeColor=none;fillColor=none;spacingLeft=4;spacingRight=4;overflow=hidden;rotatable=0;points=[[0,0.5],[1,0.5]];portConstraint=eastwest;fontSize=12;" parent="aDghzlmtOEEkzEwvL-jS-1" vertex="1">
                    <mxGeometry x="250" y="460" width="100" height="30" as="geometry"/>
                </mxCell>
                <mxCell id="rY23scBUV142XokkgXLj-3" value="" style="rounded=1;whiteSpace=wrap;html=1;fontSize=12;" parent="aDghzlmtOEEkzEwvL-jS-1" vertex="1">
                    <mxGeometry x="560" y="620" width="120" height="60" as="geometry"/>
                </mxCell>
            </root>
        </mxGraphModel>
    </diagram>
</mxfile>